<svg version="1.1" preserveAspectRatio="none" xmlns="http://www.w3.org/2000/svg" width="500" height="500" viewBox="0 0 500 500"><rect width="100%" height="100%" fill="#232128" fill-opacity="1"/><svg viewBox="-66.9506 226.9516 649.2867 184" width="333" height="94.36817356646917" x="83.5px" y="202.8159px" xmlns="http://www.w3.org/2000/svg" xmlns:xlink="http://www.w3.org/1999/xlink" preserveAspectRatio="none"><defs></defs><style>.companyName {fill:#A5AEAD;fill-opacity:1;}.icon1 {fill:#A4747F;fill-opacity:1;}.icon2 {fill:#8CA6A2;fill-opacity:1;}.icon3 {fill:#5E718C;fill-opacity:1;}.icon3-str {stroke:#5E718C;stroke-opacity:1;}.text {fill:#A5AEAD;fill-opacity:1;}</style><g opacity="1" transform="rotate(0 -66.9506 226.9516)">
<svg width="227.5393" height="184" x="-66.9506" y="226.9516" version="1.1" preserveAspectRatio="none" viewBox="8.607115745544434 11.742034912109375 32.78888702392578 26.514781951904297">
  <g transform="matrix(1 0 0 1 0 0)" class="icon1"><path d="M38.217,23.093c0.445,1.671,0.524,3.331,0.269,4.911c-0.267,1.652-0.901,3.225-1.871,4.623  c-1.015,1.467-2.391,2.74-4.083,3.707c-1.765,1.006-3.85,1.672-6.18,1.865c-2.396,0.199-4.776-0.121-6.996-0.879  c-2.234-0.764-4.257-1.955-5.938-3.459c-1.658-1.484-2.952-3.248-3.78-5.168c-0.802-1.861-1.155-3.842-0.992-5.832  c0.156-1.902,0.769-3.625,1.712-5.107c0.901-1.417,2.104-2.619,3.508-3.563c1.348-0.906,2.887-1.58,4.541-1.99  c1.6-0.395,3.323-0.544,5.11-0.412c0.927,0.067,1.832,0.209,2.706,0.415c0.869,0.206,1.711,0.474,2.52,0.799  c0.807,0.325,1.583,0.707,2.32,1.139c0.74,0.433,1.442,0.918,2.102,1.448c-0.165,0.113-0.328,0.229-0.489,0.343  c-0.164,0.118-0.328,0.236-0.488,0.355c-0.163,0.119-0.323,0.24-0.483,0.362s-0.318,0.246-0.477,0.369  c-0.509-0.403-1.055-0.772-1.626-1.102c-0.572-0.328-1.174-0.616-1.799-0.859c-0.626-0.244-1.277-0.444-1.948-0.593  c-0.674-0.151-1.369-0.25-2.081-0.293c-1.401-0.083-2.743,0.061-3.978,0.401c-1.268,0.348-2.433,0.905-3.437,1.638  c-1.036,0.756-1.904,1.704-2.532,2.807c-0.65,1.141-1.042,2.448-1.09,3.875c-0.049,1.476,0.273,2.928,0.911,4.283  c0.653,1.387,1.629,2.654,2.853,3.719c1.236,1.078,2.708,1.936,4.326,2.5c1.61,0.559,3.338,0.82,5.088,0.717  c1.714-0.1,3.268-0.539,4.598-1.229c1.29-0.668,2.363-1.57,3.175-2.629c0.783-1.021,1.32-2.184,1.581-3.422  c0.25-1.199,0.241-2.47-0.058-3.762c-0.052-0.221-0.109-0.438-0.176-0.653c-0.065-0.213-0.141-0.424-0.221-0.631  c-0.079-0.207-0.167-0.41-0.259-0.611c-0.094-0.198-0.192-0.395-0.296-0.589c0.155-0.175,0.311-0.348,0.466-0.516  c0.153-0.168,0.307-0.333,0.462-0.494c0.154-0.16,0.308-0.316,0.46-0.47c0.152-0.151,0.305-0.3,0.454-0.446  c0.235,0.329,0.458,0.667,0.667,1.015c0.208,0.349,0.401,0.708,0.58,1.076c0.178,0.371,0.342,0.751,0.487,1.14  C37.98,22.283,38.108,22.684,38.217,23.093z M36.605,14.353c-1.631,0.854-3.221,1.972-4.689,3.153  c-1.549,1.247-2.959,2.56-4.097,3.672c-1.188,1.164-2.056,2.084-2.44,2.444c-0.169-0.293-0.548-0.822-1.026-1.457  c-0.473-0.629-1.042-1.359-1.6-2.07c-0.552-0.703-1.095-1.385-1.53-1.934c-0.43-0.543-0.756-0.956-0.881-1.128  c-0.262,0.064-0.661,0.21-1.114,0.389c-0.459,0.183-0.976,0.404-1.463,0.618c-0.494,0.217-0.958,0.427-1.301,0.585  c-0.345,0.158-0.565,0.261-0.565,0.261c1.018,1.083,2.039,2.349,3.01,3.652c0.991,1.332,1.931,2.706,2.753,3.961  c0.839,1.281,1.551,2.434,2.058,3.273c0.513,0.852,0.811,1.371,0.811,1.371s0.076-0.002,0.226-0.008  c0.15-0.008,0.374-0.016,0.673-0.027c0.298-0.014,0.668-0.027,1.109-0.047c0.439-0.016,0.949-0.037,1.528-0.061  c0.257-2.725,1.386-5.292,2.845-7.534c1.356-2.084,3.003-3.893,4.539-5.34c1.444-1.362,2.816-2.427,3.803-3.136  c0.95-0.685,1.571-1.062,1.571-1.062s0.018-0.023,0.046-0.069c0.028-0.047,0.072-0.118,0.124-0.214  c0.052-0.095,0.114-0.215,0.181-0.363c0.069-0.145,0.144-0.318,0.22-0.516C39.769,12.955,38.16,13.538,36.605,14.353z"></path></g>
</svg>
</g><g opacity="1" transform="rotate(0 186.5887 356.9516)">
<svg width="334.2678" height="24" x="186.5887" y="356.9516" version="1.1" preserveAspectRatio="none" viewBox="1.84 -29.68 524.24 37.64">
  <g transform="matrix(1 0 0 1 0 0)" class="text"><path id="id-6izo4zJp20" d="M12.68 0.20Q9.56 0.20 7.10-1.16Q4.64-2.52 3.24-4.98Q1.84-7.44 1.84-10.52L1.84-10.52Q1.84-13.60 3.24-16.04Q4.64-18.48 7.10-19.84Q9.56-21.20 12.68-21.20L12.68-21.20Q15.40-21.20 17.54-20.14Q19.68-19.08 20.92-17.04L20.92-17.04L18.80-15.60Q17.76-17.16 16.16-17.94Q14.56-18.72 12.68-18.72L12.68-18.72Q10.40-18.72 8.58-17.70Q6.76-16.68 5.74-14.80Q4.72-12.92 4.72-10.52L4.72-10.52Q4.72-8.08 5.74-6.22Q6.76-4.36 8.58-3.34Q10.40-2.32 12.68-2.32L12.68-2.32Q14.56-2.32 16.16-3.08Q17.76-3.84 18.80-5.40L18.80-5.40L20.92-3.96Q19.68-1.92 17.52-0.86Q15.36 0.20 12.68 0.20L12.68 0.20Z M40.88-21.20Q44.84-21.20 47.18-18.90Q49.52-16.60 49.52-12.20L49.52-12.20L49.52 0L46.68 0L46.68-11.92Q46.68-15.20 45.04-16.92Q43.40-18.64 40.36-18.64L40.36-18.64Q36.96-18.64 34.98-16.62Q33-14.60 33-11.04L33-11.04L33 0L30.16 0L30.16-29.68L33-29.68L33-17.36Q34.16-19.20 36.20-20.20Q38.24-21.20 40.88-21.20L40.88-21.20Z M69.92 0.20Q66.88 0.20 64.44-1.18Q62-2.56 60.60-5Q59.20-7.44 59.20-10.52L59.20-10.52Q59.20-13.60 60.60-16.04Q62-18.48 64.44-19.84Q66.88-21.20 69.92-21.20L69.92-21.20Q72.96-21.20 75.40-19.84Q77.84-18.48 79.22-16.04Q80.60-13.60 80.60-10.52L80.60-10.52Q80.60-7.44 79.22-5Q77.84-2.56 75.40-1.18Q72.96 0.20 69.92 0.20L69.92 0.20ZM69.92-2.32Q72.16-2.32 73.94-3.34Q75.72-4.36 76.72-6.24Q77.72-8.12 77.72-10.52L77.72-10.52Q77.72-12.92 76.72-14.80Q75.72-16.68 73.94-17.70Q72.16-18.72 69.92-18.72L69.92-18.72Q67.68-18.72 65.90-17.70Q64.12-16.68 63.10-14.80Q62.08-12.92 62.08-10.52L62.08-10.52Q62.08-8.12 63.10-6.24Q64.12-4.36 65.90-3.34Q67.68-2.32 69.92-2.32L69.92-2.32Z M99 0.20Q95.96 0.20 93.52-1.18Q91.08-2.56 89.68-5Q88.28-7.44 88.28-10.52L88.28-10.52Q88.28-13.60 89.68-16.04Q91.08-18.48 93.52-19.84Q95.96-21.20 99-21.20L99-21.20Q102.04-21.20 104.48-19.84Q106.92-18.48 108.30-16.04Q109.68-13.60 109.68-10.52L109.68-10.52Q109.68-7.44 108.30-5Q106.92-2.56 104.48-1.18Q102.04 0.20 99 0.20L99 0.20ZM99-2.32Q101.24-2.32 103.02-3.34Q104.80-4.36 105.80-6.24Q106.80-8.12 106.80-10.52L106.80-10.52Q106.80-12.92 105.80-14.80Q104.80-16.68 103.02-17.70Q101.24-18.72 99-18.72L99-18.72Q96.76-18.72 94.98-17.70Q93.20-16.68 92.18-14.80Q91.16-12.92 91.16-10.52L91.16-10.52Q91.16-8.12 92.18-6.24Q93.20-4.36 94.98-3.34Q96.76-2.32 99-2.32L99-2.32Z M125.12 0.20Q122.56 0.20 120.22-0.54Q117.88-1.28 116.56-2.40L116.56-2.40L117.84-4.64Q119.16-3.60 121.16-2.94Q123.16-2.28 125.32-2.28L125.32-2.28Q128.20-2.28 129.58-3.18Q130.96-4.08 130.96-5.72L130.96-5.72Q130.96-6.88 130.20-7.54Q129.44-8.20 128.28-8.54Q127.12-8.88 125.20-9.20L125.20-9.20Q122.64-9.68 121.08-10.18Q119.52-10.68 118.42-11.88Q117.32-13.08 117.32-15.20L117.32-15.20Q117.32-17.84 119.52-19.52Q121.72-21.20 125.64-21.20L125.64-21.20Q127.68-21.20 129.72-20.66Q131.76-20.12 133.08-19.24L133.08-19.24L131.84-16.96Q129.24-18.76 125.64-18.76L125.64-18.76Q122.92-18.76 121.54-17.80Q120.16-16.84 120.16-15.28L120.16-15.28Q120.16-14.08 120.94-13.36Q121.72-12.64 122.88-12.30Q124.04-11.96 126.08-11.60L126.08-11.60Q128.60-11.12 130.12-10.64Q131.64-10.16 132.72-9Q133.80-7.84 133.80-5.80L133.80-5.80Q133.80-3.04 131.50-1.42Q129.20 0.20 125.12 0.20L125.12 0.20Z M161.40-10.52L161.36-9.64L143.76-9.64Q144.00-6.36 146.28-4.34Q148.56-2.32 152.04-2.32L152.04-2.32Q154.00-2.32 155.64-3.02Q157.28-3.72 158.48-5.08L158.48-5.08L160.08-3.24Q158.68-1.56 156.58-0.68Q154.48 0.20 151.96 0.20L151.96 0.20Q148.72 0.20 146.22-1.18Q143.72-2.56 142.32-5Q140.92-7.44 140.92-10.52L140.92-10.52Q140.92-13.60 142.26-16.04Q143.60-18.48 145.94-19.84Q148.28-21.20 151.20-21.20L151.20-21.20Q154.12-21.20 156.44-19.84Q158.76-18.48 160.08-16.06Q161.40-13.64 161.40-10.52L161.40-10.52ZM151.20-18.76Q148.16-18.76 146.10-16.82Q144.04-14.88 143.76-11.76L143.76-11.76L158.68-11.76Q158.40-14.88 156.34-16.82Q154.28-18.76 151.20-18.76L151.20-18.76Z M213.96-21.04L216.56-21.04L208.60 0L205.92 0L199.28-17.24L192.64 0L189.96 0L182.04-21.04L184.76-21.04L191.36-3.16L198.12-21.04L200.56-21.04L207.28-3.16L213.96-21.04Z M235.56-21.20Q239.52-21.20 241.86-18.90Q244.20-16.60 244.20-12.20L244.20-12.20L244.20 0L241.36 0L241.36-11.92Q241.36-15.20 239.72-16.92Q238.08-18.64 235.04-18.64L235.04-18.64Q231.64-18.64 229.66-16.62Q227.68-14.60 227.68-11.04L227.68-11.04L227.68 0L224.84 0L224.84-29.68L227.68-29.68L227.68-17.36Q228.84-19.20 230.88-20.20Q232.92-21.20 235.56-21.20L235.56-21.20Z M263.28-21.20Q267.40-21.20 269.60-19.14Q271.80-17.08 271.80-13.04L271.80-13.04L271.80 0L269.08 0L269.08-3.28Q268.12-1.64 266.26-0.72Q264.40 0.20 261.84 0.20L261.84 0.20Q258.32 0.20 256.24-1.48Q254.16-3.16 254.16-5.92L254.16-5.92Q254.16-8.60 256.10-10.24Q258.04-11.88 262.28-11.88L262.28-11.88L268.96-11.88L268.96-13.16Q268.96-15.88 267.44-17.30Q265.92-18.72 263-18.72L263-18.72Q261-18.72 259.16-18.06Q257.32-17.40 256.00-16.24L256.00-16.24L254.72-18.36Q256.32-19.72 258.56-20.46Q260.80-21.20 263.28-21.20L263.28-21.20ZM262.28-2.04Q264.68-2.04 266.40-3.14Q268.12-4.24 268.96-6.32L268.96-6.32L268.96-9.76L262.36-9.76Q256.96-9.76 256.96-6L256.96-6Q256.96-4.16 258.36-3.10Q259.76-2.04 262.28-2.04L262.28-2.04Z M293.60-3.32L294.60-1.28Q293.80-0.56 292.62-0.18Q291.44 0.20 290.16 0.20L290.16 0.20Q287.20 0.20 285.60-1.40Q284-3 284-5.92L284-5.92L284-18.64L280.24-18.64L280.24-21.04L284-21.04L284-25.64L286.84-25.64L286.84-21.04L293.24-21.04L293.24-18.64L286.84-18.64L286.84-6.08Q286.84-4.20 287.78-3.22Q288.72-2.24 290.48-2.24L290.48-2.24Q291.36-2.24 292.18-2.52Q293-2.80 293.60-3.32L293.60-3.32Z M333.12-21.04L335.92-21.04L325.40 2.52Q324.12 5.48 322.44 6.72Q320.76 7.96 318.40 7.96L318.40 7.96Q316.88 7.96 315.56 7.48Q314.24 7 313.28 6.04L313.28 6.04L314.60 3.92Q316.20 5.52 318.44 5.52L318.44 5.52Q319.88 5.52 320.90 4.72Q321.92 3.92 322.80 2L322.80 2L323.72-0.04L314.32-21.04L317.28-21.04L325.20-3.16L333.12-21.04Z M351.92 0.20Q348.88 0.20 346.44-1.18Q344-2.56 342.60-5Q341.20-7.44 341.20-10.52L341.20-10.52Q341.20-13.60 342.60-16.04Q344-18.48 346.44-19.84Q348.88-21.20 351.92-21.20L351.92-21.20Q354.96-21.20 357.40-19.84Q359.84-18.48 361.22-16.04Q362.60-13.60 362.60-10.52L362.60-10.52Q362.60-7.44 361.22-5Q359.84-2.56 357.40-1.18Q354.96 0.20 351.92 0.20L351.92 0.20ZM351.92-2.32Q354.16-2.32 355.94-3.34Q357.72-4.36 358.72-6.24Q359.72-8.12 359.72-10.52L359.72-10.52Q359.72-12.92 358.72-14.80Q357.72-16.68 355.94-17.70Q354.16-18.72 351.92-18.72L351.92-18.72Q349.68-18.72 347.90-17.70Q346.12-16.68 345.10-14.80Q344.08-12.92 344.08-10.52L344.08-10.52Q344.08-8.12 345.10-6.24Q346.12-4.36 347.90-3.34Q349.68-2.32 351.92-2.32L351.92-2.32Z M388.52-21.04L391.36-21.04L391.36 0L388.64 0L388.64-3.84Q387.52-1.92 385.56-0.86Q383.60 0.20 381.08 0.20L381.08 0.20Q376.96 0.20 374.58-2.10Q372.20-4.40 372.20-8.84L372.20-8.84L372.20-21.04L375.04-21.04L375.04-9.12Q375.04-5.80 376.68-4.08Q378.32-2.36 381.36-2.36L381.36-2.36Q384.68-2.36 386.60-4.38Q388.52-6.40 388.52-10L388.52-10L388.52-21.04Z M446.08-21.04L448.68-21.04L440.72 0L438.04 0L431.40-17.24L424.76 0L422.08 0L414.16-21.04L416.88-21.04L423.48-3.16L430.24-21.04L432.68-21.04L439.40-3.16L446.08-21.04Z M463.68-21.20Q467.80-21.20 470.00-19.14Q472.20-17.08 472.20-13.04L472.20-13.04L472.20 0L469.48 0L469.48-3.28Q468.52-1.64 466.66-0.72Q464.80 0.20 462.24 0.20L462.24 0.20Q458.72 0.20 456.64-1.48Q454.56-3.16 454.56-5.92L454.56-5.92Q454.56-8.60 456.50-10.24Q458.44-11.88 462.68-11.88L462.68-11.88L469.36-11.88L469.36-13.16Q469.36-15.88 467.84-17.30Q466.32-18.72 463.40-18.72L463.40-18.72Q461.40-18.72 459.56-18.06Q457.72-17.40 456.40-16.24L456.40-16.24L455.12-18.36Q456.72-19.72 458.96-20.46Q461.20-21.20 463.68-21.20L463.68-21.20ZM462.68-2.04Q465.08-2.04 466.80-3.14Q468.52-4.24 469.36-6.32L469.36-6.32L469.36-9.76L462.76-9.76Q457.36-9.76 457.36-6L457.36-6Q457.36-4.16 458.76-3.10Q460.16-2.04 462.68-2.04L462.68-2.04Z M494.64-21.20Q498.60-21.20 500.94-18.90Q503.28-16.60 503.28-12.20L503.28-12.20L503.28 0L500.44 0L500.44-11.92Q500.44-15.20 498.80-16.92Q497.16-18.64 494.12-18.64L494.12-18.64Q490.72-18.64 488.74-16.62Q486.76-14.60 486.76-11.04L486.76-11.04L486.76 0L483.92 0L483.92-21.04L486.64-21.04L486.64-17.16Q487.80-19.08 489.86-20.14Q491.92-21.20 494.64-21.20L494.64-21.20Z M525.08-3.32L526.08-1.28Q525.28-0.56 524.10-0.18Q522.92 0.20 521.64 0.20L521.64 0.20Q518.68 0.20 517.08-1.40Q515.48-3 515.48-5.92L515.48-5.92L515.48-18.64L511.72-18.64L511.72-21.04L515.48-21.04L515.48-25.64L518.32-25.64L518.32-21.04L524.72-21.04L524.72-18.64L518.32-18.64L518.32-6.08Q518.32-4.20 519.26-3.22Q520.20-2.24 521.96-2.24L521.96-2.24Q522.84-2.24 523.66-2.52Q524.48-2.80 525.08-3.32L525.08-3.32Z"/></g>
</svg>
</g><g opacity="1" transform="rotate(0 186.5887 256.9516)">
<svg width="395.7474" height="80" x="186.5887" y="256.9516" version="1.1" preserveAspectRatio="none" viewBox="1.8945 -28.8672 185.4102 37.480500000000006">
  <g transform="matrix(1 0 0 1 0 0)" class="companyName"><path id="id-D6z1nYkh8" d="M10.41-27.48L11.11-27.48Q16.33-27.48 18.13-26.56L18.13-26.56Q19.47-25.88 19.47-23.05Q19.47-20.21 18.52-20.21L18.52-20.21Q17.73-20.21 15.96-21.87Q14.18-23.52 13.26-24.02Q12.34-24.53 10.87-24.53Q9.39-24.53 8.35-23.57Q7.30-22.62 7.30-21.29L7.30-21.29Q7.30-19.51 9.26-18.11L9.26-18.11Q10.23-17.40 13.77-15.82Q17.30-14.24 18.81-12.71L18.81-12.71Q20.94-10.55 20.94-7.83L20.94-7.83Q20.94-2.17 15.33-0.20L15.33-0.20Q13.67 0.39 11.93 0.39L11.93 0.39L11.23 0.39Q9.08 0.39 6.46-0.10Q3.85-0.59 3.16-1.05L3.16-1.05Q1.89-1.93 1.89-5.14L1.89-5.14L1.89-5.80Q1.89-7.87 3.01-7.87L3.01-7.87Q3.79-7.87 5.49-5.88Q7.19-3.89 8.35-3.22Q9.51-2.56 11.32-2.56Q13.13-2.56 14.36-3.59Q15.59-4.63 15.59-5.84L15.59-5.84Q15.59-7.66 14.49-8.83Q13.40-10 10.14-11.50Q6.88-13.01 5.63-13.93L5.63-13.93Q2.19-16.46 2.19-20.02L2.19-20.02Q2.19-20.76 2.34-21.56L2.34-21.56Q2.99-24.92 6.66-26.64L6.66-26.64Q8.46-27.48 10.41-27.48L10.41-27.48Z M46.02-1.25L46.02-1.25Q46.02-0.33 44.71-0.05Q43.40 0.23 40.98 0.23Q38.55 0.23 37.83-0.08Q37.11-0.39 37.11-1.13L37.11-1.13Q37.11-1.45 37.62-2.40Q38.13-3.36 38.32-4.01Q38.52-4.67 38.52-8.75Q38.52-12.83 37.83-14.27Q37.15-15.70 35.24-15.70Q33.34-15.70 32.33-14.42Q31.33-13.14 31.33-9.77L31.33-9.77Q31.33-8.65 31.60-6.33Q31.88-4.00 32.38-2.79Q32.89-1.58 32.89-1.46L32.89-1.46Q32.89-0.59 31.84-0.35L31.84-0.35Q30.29-0.02 27.18-0.02Q24.06-0.02 24.06-0.98L24.06-0.98Q24.06-1.66 24.97-2.93Q25.88-4.20 26.01-5.14Q26.13-6.07 26.13-14.51Q26.13-22.95 25.87-23.98Q25.61-25.02 25.02-25.55L25.02-25.55Q23.63-26.80 23.63-26.95L23.63-26.95Q23.63-27.75 24.47-28.11L24.47-28.11Q26.27-28.87 29.24-28.87L29.24-28.87Q30.66-28.87 31.07-27.83L31.07-27.83Q31.33-27.19 31.33-22.82Q31.33-18.46 31.41-18.18L31.41-18.18Q31.60-17.50 32.21-17.50L32.21-17.50Q32.46-17.50 33.32-17.89L33.32-17.89Q35.70-18.98 37.66-18.98L37.66-18.98Q41.19-18.98 42.66-16.19L42.66-16.19Q43.71-14.18 43.71-9.32Q43.71-4.45 43.98-3.81Q44.26-3.16 45.14-2.32Q46.02-1.48 46.02-1.25Z M58.14-16.74L58.14-16.74L57.77-16.74Q56.09-16.74 55.03-14.84Q53.96-12.95 53.96-10.31L53.96-10.31L53.96-9.22Q53.96-6.25 55.20-4.20Q56.43-2.15 58.14-2.15L58.14-2.15L58.52-2.15Q60.02-2.15 61.14-3.68Q62.27-5.21 62.27-7.77L62.27-7.77L62.30-8.18L62.32-9.00L62.32-9.22L62.30-9.43L62.30-9.84Q62.27-10.27 62.27-10.47L62.27-10.47Q62.27-13.07 61.04-14.90Q59.80-16.74 58.14-16.74ZM58.16-19.34L58.16-19.34L59.14-19.34Q60.88-19.34 62.71-18.52L62.71-18.52Q66.21-16.95 67.52-13.44L67.52-13.44Q68.18-11.62 68.18-9.73L68.18-9.73L68.18-9.38Q68.18-7.34 67.36-5.39Q66.54-3.44 65.16-2.15L65.16-2.15Q62.27 0.47 58.52 0.47L58.52 0.47Q58.22 0.47 57.93 0.45L57.93 0.45Q56.05 0.45 54.25-0.30Q52.44-1.05 51.29-2.30L51.29-2.30Q48.81-5.04 48.81-9.16L48.81-9.16L48.81-9.49L48.83-9.82Q48.85-11.64 49.51-13.42L49.51-13.42Q50.80-16.82 54.24-18.44L54.24-18.44Q56.17-19.34 58.16-19.34Z M86.23-9.24L86.21-9.45L86.17-10.53Q86.17-13.03 84.77-14.94L84.77-14.94Q83.71-16.37 81.95-16.37L81.95-16.37L81.80-16.35Q80.10-16.35 79.14-15L79.14-15Q78.54-14.16 78.54-12.17L78.54-12.17L78.50-11.80L78.44-10.08L78.44-8.32L78.46-8.13L78.46-7.75L78.48-7.56Q78.48-7.36 78.48-7.17L78.48-7.17L78.52-6.60L78.55-5.86Q78.55-4.24 79.45-3.26Q80.35-2.29 81.78-2.29L81.78-2.29L82.13-2.29Q84.04-2.29 85.31-4.41L85.31-4.41Q86.23-5.94 86.23-9.00L86.23-9.00L86.23-9.24ZM78.83 2.73L78.83 2.73Q78.83 4.34 79.69 5.47L79.69 5.47L80.55 6.33Q81.25 7.03 81.25 7.50L81.25 7.50Q81.25 8.13 80.38 8.36Q79.51 8.59 76.64 8.59L76.64 8.59L76.13 8.61Q72.83 8.61 72.06 8.36Q71.29 8.11 71.29 7.56L71.29 7.56Q71.29 7.34 72.25 5.84Q73.20 4.34 73.44 2.73L73.44 2.73Q73.52 2.21 73.52-5.64Q73.52-13.50 73.34-14.33Q73.16-15.16 72.09-15.89Q71.02-16.62 71.02-17.29Q71.02-17.95 71.93-18.26L71.93-18.26Q74.51-19.12 76.78-19.12L76.78-19.12Q77.38-19.12 77.67-18.84Q77.95-18.55 78.22-18.13Q78.50-17.70 78.77-17.70Q79.04-17.70 79.79-18.13Q80.55-18.55 81.51-18.96Q82.48-19.36 84.06-19.36L84.06-19.36L84.59-19.36Q86.00-19.36 87.43-18.60Q88.87-17.85 89.86-16.62L89.86-16.62Q91.88-14.10 91.88-10.35L91.88-10.35Q91.88-5.72 89.18-2.81L89.18-2.81Q87.77-1.29 86.13-0.67Q84.49-0.06 82.42-0.06L82.42-0.06Q82.40-0.06 80.94-0.21L80.94-0.21L80.10-0.31L79.71-0.37Q78.83-0.37 78.83 2.73Z M129.82-6.25Q129.79-5.14 129.79-3.10Q129.79-1.05 129.54-0.69Q129.30-0.33 128.30-0.33L128.30-0.33Q127.97-0.33 126.64-1.06Q125.31-1.80 124.24-3.13L124.24-3.13Q123.79-3.67 118.46-11.46Q113.13-19.26 112.17-19.26L112.17-19.26Q111.78-19.26 111.78-13.96Q111.78-8.65 112.54-4.41L112.54-4.41Q112.75-3.22 113.29-2.48Q113.83-1.74 113.83-1.25L113.83-1.25L113.67-0.80Q113.11-0.14 109.92-0.14L109.92-0.14L109.08-0.14Q106.56-0.14 106.09-0.51Q105.63-0.88 105.63-1.62L105.63-1.62Q105.63-2.03 106.71-2.69Q107.79-3.34 108.01-3.98L108.01-3.98Q108.13-4.34 108.13-7.46L108.13-7.46L108.16-8.40L108.22-11.21Q108.28-14.00 108.28-17.57Q108.28-21.13 108.02-22.04Q107.75-22.95 106.58-23.82Q105.41-24.69 105.41-25.40Q105.41-26.11 105.97-26.49Q106.52-26.88 108.13-26.88L108.13-26.88L109.00-26.88Q112.17-26.88 114.63-24.20Q117.09-21.52 121.20-15.55Q125.31-9.57 125.94-9.57L125.94-9.57Q126.68-9.57 126.68-17.27L126.68-17.27Q126.68-22.99 125.41-24.47L125.41-24.47Q124.69-25.33 124.69-25.66L124.69-25.66Q124.69-26.54 126.46-26.54L126.46-26.54Q130.02-26.54 131.36-26.24Q132.70-25.94 132.70-24.98L132.70-24.98Q132.70-24.41 131.53-23.23Q130.37-22.05 130.25-21.57Q130.14-21.09 130.14-17.03L130.14-17.03L129.88-7.97L129.86-7.11L129.82-6.25Z M144.98-16.74L144.98-16.74L144.61-16.74Q142.93-16.74 141.87-14.84Q140.80-12.95 140.80-10.31L140.80-10.31L140.80-9.22Q140.80-6.25 142.03-4.20Q143.26-2.15 144.98-2.15L144.98-2.15L145.35-2.15Q146.86-2.15 147.98-3.68Q149.10-5.21 149.10-7.77L149.10-7.77L149.14-8.18L149.16-9.00L149.16-9.22L149.14-9.43L149.14-9.84Q149.10-10.27 149.10-10.47L149.10-10.47Q149.10-13.07 147.87-14.90Q146.64-16.74 144.98-16.74ZM145-19.34L145-19.34L145.98-19.34Q147.71-19.34 149.55-18.52L149.55-18.52Q153.05-16.95 154.36-13.44L154.36-13.44Q155.02-11.62 155.02-9.73L155.02-9.73L155.02-9.38Q155.02-7.34 154.20-5.39Q153.38-3.44 151.99-2.15L151.99-2.15Q149.10 0.47 145.35 0.47L145.35 0.47Q145.06 0.47 144.77 0.45L144.77 0.45Q142.89 0.45 141.08-0.30Q139.28-1.05 138.13-2.30L138.13-2.30Q135.64-5.04 135.64-9.16L135.64-9.16L135.64-9.49L135.66-9.82Q135.68-11.64 136.35-13.42L136.35-13.42Q137.64-16.82 141.07-18.44L141.07-18.44Q143.01-19.34 145-19.34Z M173.40-18.52L173.40-18.52Q176.68-18.52 176.68-14.63L176.68-14.63Q176.68-11.99 178.28-8.54L178.28-8.54Q178.69-7.66 179.02-7.66L179.02-7.66Q179.67-7.66 180.56-10.01Q181.45-12.36 181.45-14.65L181.45-14.65L181.43-15.27L181.31-15.82L181.31-16.78Q181.31-17.71 182.18-18.19Q183.05-18.67 185.18-18.67Q187.30-18.67 187.30-17.46L187.30-17.46Q187.30-16.88 186.46-15.95Q185.61-15.02 185.20-14.02Q184.79-13.03 184.36-11.68Q183.93-10.33 182.45-6.19Q180.98-2.05 180.80-1.72L180.80-1.72Q179.88 0.08 178.16 0.08L178.16 0.08Q177.11 0.08 176.31-1.45L176.31-1.45Q176.02-2.01 174.32-6.19Q172.62-10.37 172.52-10.37L172.52-10.37Q172.27-10.37 170.56-6.16Q168.85-1.95 168.44-1.23L168.44-1.23Q167.73 0 166.39 0Q165.04 0 163.98-1.97L163.98-1.97Q163.63-2.64 162.07-6.96Q160.51-11.29 159.79-12.93Q159.06-14.57 158.14-15.73Q157.23-16.89 157.23-17.13L157.23-17.13Q157.23-17.79 157.78-18.25Q158.34-18.71 159.51-18.71L159.51-18.71L161.02-18.71Q163.95-18.71 164.80-17.23L164.80-17.23Q165.06-16.80 165.48-14.15Q165.90-11.50 166.11-10.80L166.11-10.80Q167.01-7.93 167.81-7.93L167.81-7.93Q168.46-7.93 169.12-9.84Q169.79-11.76 169.79-13.87L169.79-13.87L169.77-14.51L169.73-15.18Q169.73-17.11 170.71-17.81Q171.70-18.52 173.40-18.52Z"/></g>
</svg>
</g></svg></svg>